<?xml version="1.0" encoding="UTF-8"?>
<svg version="1.1" xmlns="http://www.w3.org/2000/svg" width="780" height="146">
<path d="M0 0 C4.95 0 9.9 0 15 0 C15.33 8.25 15.66 16.5 16 25 C17.32 24.01 18.64 23.02 20 22 C25.77712979 20.07429007 31.8099294 20.09812381 37.375 22.6875 C43.22298499 26.05273885 45.73780633 30.75203652 48 37 C49.98108505 46.7253266 49.92661598 57.82950015 45.25 66.8125 C42.18734127 71.15126653 39.15649106 74.28116965 34 76 C26.50006427 76.66885392 21.1641667 76.48303033 15 72 C14.67 72.99 14.34 73.98 14 75 C9.38 75 4.76 75 0 75 C0 50.25 0 25.5 0 0 Z M16 37 C14.18784101 40.62431797 14.68688302 44.82104538 14.625 48.8125 C14.58761719 49.71548828 14.55023438 50.61847656 14.51171875 51.54882812 C14.45107929 56.13384506 14.49541702 58.30956374 17.26953125 62.10546875 C21.36318343 64.94584258 23.10764494 64.62125144 28 64 C30.5 63.16666667 30.5 63.16666667 32 61 C34.93631888 52.33785931 34.94438885 44.32892409 31 36 C28.68861026 33.36979789 27.51872929 33.07725755 24.0625 32.5625 C20.29439042 33.10080137 18.70155711 34.37563024 16 37 Z " fill="#000000" transform="translate(26,44)"/>
<path d="M0 0 C4.95 0 9.9 0 15 0 C15.33 8.25 15.66 16.5 16 25 C18.64 23.68 21.28 22.36 24 21 C29.87230509 19.9436505 34.98482811 20.65655207 40 24 C43.67240419 26.9583256 44.81782601 29.46886584 46 34 C46.25866799 37.18840207 46.2334275 40.3576013 46.1953125 43.5546875 C46.1924826 44.45623566 46.18965271 45.35778381 46.18673706 46.28665161 C46.17559439 49.14957276 46.1505008 52.01217434 46.125 54.875 C46.11496255 56.82291213 46.10583804 58.77082919 46.09765625 60.71875 C46.07567443 65.4792887 46.0411855 70.23959027 46 75 C41.05 75 36.1 75 31 75 C30.98541748 73.86457764 30.97083496 72.72915527 30.95581055 71.55932617 C30.89786324 67.34904391 30.82063059 63.1392985 30.73754883 58.92944336 C30.7042826 57.10694081 30.67625594 55.28433481 30.65356445 53.46166992 C30.62004919 50.8424875 30.56773648 48.22425452 30.51171875 45.60546875 C30.50532883 44.78974899 30.4989389 43.97402924 30.49235535 43.1335907 C30.48881973 38.93455702 30.48881973 38.93455702 28.68782043 35.28413391 C25.87990518 33.14780523 23.39391089 33.64274622 20 34 C17.67086663 34.87474461 17.67086663 34.87474461 16 37 C15.57448297 39.98451857 15.39512794 42.615867 15.390625 45.60546875 C15.37408875 46.44467361 15.35755249 47.28387848 15.34051514 48.14851379 C15.29193977 50.82824958 15.27064372 53.50741757 15.25 56.1875 C15.22184819 58.00458601 15.19192187 59.82164545 15.16015625 61.63867188 C15.0861786 66.09240118 15.03666257 70.54581351 15 75 C10.05 75 5.1 75 0 75 C0 50.25 0 25.5 0 0 Z " fill="#A1192E" transform="translate(429,44)"/>
<path d="M0 0 C4.95 0 9.9 0 15 0 C15.33 12.54 15.66 25.08 16 38 C22.04208646 31.43736424 22.04208646 31.43736424 27.48046875 24.3984375 C30.69182627 21.34142429 32.53453525 21.3681213 36.83789062 21.47265625 C38.06282227 21.54806641 38.06282227 21.54806641 39.3125 21.625 C40.56643555 21.66560547 40.56643555 21.66560547 41.84570312 21.70703125 C43.89825247 21.77740437 45.94946591 21.88501678 48 22 C45.71727376 26.18884108 42.83830701 29.51259334 39.5625 32.9375 C35.91548417 36.75185529 32.81875412 40.528643 30 45 C30.70125 46.01578125 31.4025 47.0315625 32.125 48.078125 C35.09152148 52.37981705 38.04763709 56.68858152 41 61 C41.43103027 61.6280957 41.86206055 62.25619141 42.30615234 62.90332031 C43.43843044 64.55702416 44.56322886 66.21584223 45.6875 67.875 C46.33074219 68.82117188 46.97398437 69.76734375 47.63671875 70.7421875 C49 73 49 73 49 75 C43.35326002 76.01283847 37.51574477 77.01437074 32 75 C27.39439264 70.9321586 24.62794807 65.24474398 21.96704102 59.78759766 C21.01522189 57.82489863 21.01522189 57.82489863 19 56 C17.37185115 56.99264379 17.37185115 56.99264379 16 59 C15.62325482 61.79251583 15.39808059 64.38779201 15.3125 67.1875 C15.27833984 67.93708984 15.24417969 68.68667969 15.20898438 69.45898438 C15.12665706 71.30546838 15.06164719 73.15270994 15 75 C10.05 75 5.1 75 0 75 C0 50.25 0 25.5 0 0 Z " fill="#000000" transform="translate(214,44)"/>
<path d="M0 0 C2.8125 2.4375 2.8125 2.4375 5 5 C5.556875 5.61875 6.11375 6.2375 6.6875 6.875 C11.27074931 14.29549889 10 21.04942998 10 30 C-0.89 30 -11.78 30 -23 30 C-19.0715164 37.91886113 -19.0715164 37.91886113 -14.3125 39.6875 C-9.24337788 40.55012308 -4.69690289 38.79021299 0 37 C0 36.34 0 35.68 0 35 C2.37948772 35.17625835 3.70225849 35.69719773 5.37890625 37.40234375 C6.62115486 38.90649092 7.81376056 40.45129851 9 42 C7.0398498 46.90037549 3.75267983 48.91768793 -0.85546875 51.04296875 C-8.79519113 53.459406 -17.9913854 53.39015513 -25.625 50 C-31.559402 46.48331733 -36.23835269 40.72628972 -38 34 C-39.7451312 24.71522428 -38.94338604 15.17184329 -34.328125 6.78515625 C-26.50434639 -3.73092264 -11.29712564 -6.48491039 0 0 Z M-19.3125 10.625 C-21.45698481 13.39861625 -21.45698481 13.39861625 -23 19 C-17.06 19 -11.12 19 -5 19 C-5.30227718 12.48574441 -5.30227718 12.48574441 -7.625 10.0625 C-11.82996577 8.1813311 -15.47518398 7.92850766 -19.3125 10.625 Z " fill="#000000" transform="translate(412,68)"/>
<path d="M0 0 C2.4375 2.5 2.4375 2.5 4 5 C4.35441162 5.55518311 4.70882324 6.11036621 5.07397461 6.68237305 C6.37682093 9.94309546 6.33736355 13.12051228 6.37890625 16.58203125 C6.39590073 17.31443527 6.4128952 18.04683929 6.43040466 18.80143738 C6.48338927 21.1383709 6.52371915 23.47529114 6.5625 25.8125 C6.60667678 28.13890219 6.6536538 30.46517916 6.70530701 32.79142761 C6.73681776 34.23608451 6.76383831 35.68084907 6.78553772 37.12568665 C6.87414798 41.50873555 7.3028878 45.68282104 8 50 C5.54137599 50.05383848 3.0839245 50.09359038 0.625 50.125 C-0.07367188 50.14175781 -0.77234375 50.15851563 -1.4921875 50.17578125 C-3.32897486 50.19344267 -5.16601963 50.10303261 -7 50 C-7.66 49.34 -8.32 48.68 -9 48 C-9.721875 48.495 -10.44375 48.99 -11.1875 49.5 C-16.41542923 52.0829199 -22.35029749 51.73721728 -28 51 C-33.34689542 48.98246027 -36.48420027 46.15104396 -39 41 C-39.8178406 35.52562552 -39.70195287 30.57237443 -37.4375 25.5 C-30.31618911 18.19609139 -21.51698707 17.08978627 -11.59765625 16.953125 C-10.74042969 16.96859375 -9.88320312 16.9840625 -9 17 C-10.12697043 12.03088634 -10.12697043 12.03088634 -13 8 C-17.05261287 7.65509678 -18.54754176 7.69836118 -22 10 C-22.66 11.32 -23.32 12.64 -24 14 C-28.62 14 -33.24 14 -38 14 C-38 7.4760864 -37.33633558 5.46642565 -33 1 C-23.60746283 -5.96054094 -9.77934615 -6.54073151 0 0 Z M-22 28 C-24.31282587 31.46923881 -24.42478586 32.92205575 -24 37 C-23 39 -23 39 -21 40 C-17.24618082 40.58392743 -15.15198106 40.06191821 -11.625 38.625 C-8.79504887 36.31481742 -8.79504887 36.31481742 -8.625 33.5078125 C-8.625 30.97823647 -8.74077759 28.51541744 -9 26 C-13.71704317 25.76990033 -17.55578714 26.37615299 -22 28 Z " fill="#010101" transform="translate(146,69)"/>
<path d="M0 0 C6.23151854 5.20391083 8.71835726 11.95456578 9.8125 19.8125 C10.46166843 28.80417331 8.81770171 36.96761332 3 44 C-1.245817 48.37989543 -5.40923108 50.7788368 -11.5234375 51.30078125 C-21.85503023 51.33221612 -28.25447626 50.57340099 -36 43 C-41.79066763 34.79348059 -41.90966446 25.69905541 -41 16 C-39.53561918 9.68883701 -37.05202831 5.16792336 -32 1 C-31.360625 0.443125 -30.72125 -0.11375 -30.0625 -0.6875 C-21.0741446 -6.40736253 -8.91284782 -5.38583852 0 0 Z M-24 12 C-27.01845305 17.98413594 -26.63018494 24.46558236 -26 31 C-24.81286162 34.48861893 -23.4232853 37.28835735 -20 39 C-14.03702395 39.66778342 -14.03702395 39.66778342 -9.0625 36.6875 C-5.8695413 32.52697805 -5.81549075 29.31215138 -5.75 24.1875 C-5.72421875 22.98480469 -5.6984375 21.78210938 -5.671875 20.54296875 C-6.10523241 15.86374053 -7.53991901 12.51042861 -10.8125 9.125 C-16.19883526 6.35488472 -19.96146731 7.84928585 -24 12 Z " fill="#A2192E" transform="translate(524,69)"/>
<path d="M0 0 C4.98727875 4.10065141 8.83216167 9.54908352 10 16 C10.72738571 26.91078568 10.43948134 35.40880915 3.5625 44.375 C-2.19848249 50.27649426 -7.22820439 51.1582347 -15.25 51.3125 C-22.46788184 51.32030874 -27.35590941 50.3766344 -32.703125 45.421875 C-39.02931867 38.60432648 -40.97536509 31.13955216 -41 22 C-40.50176392 14.13653497 -38.37283323 7.86769945 -33 2 C-23.39574587 -5.72034275 -10.54288346 -6.63811181 0 0 Z M-22 10 C-25.9940924 16.06510327 -26.60382639 22.71643179 -25.375 29.75 C-24.24023149 34.0128475 -22.74559858 36.47579226 -19 39 C-15.97874878 39.67272393 -14.18628357 39.45518337 -11 39 C-7.55352161 36.55118641 -6.31315542 33.94505414 -5 30 C-4.36016276 23.36064992 -3.88648832 16.582623 -8 11 C-10.39383578 8.52361816 -11.55027619 8.04684623 -15 7.6875 C-18.0256396 8.00267079 -19.59066749 8.17223051 -22 10 Z " fill="#A2192E" transform="translate(692,69)"/>
<path d="M0 0 C5.22785536 3.60970965 7.42439153 7.66798705 8.625 13.8125 C8.87346496 16.88894077 8.85929038 19.94255861 8.8203125 23.02734375 C8.8174826 23.88308487 8.81465271 24.73882599 8.81173706 25.62049866 C8.80061935 28.33047991 8.77553082 31.04012009 8.75 33.75 C8.73995931 35.59700041 8.73083537 37.44400604 8.72265625 39.29101562 C8.70070763 43.79830677 8.66623654 48.30534573 8.625 52.8125 C3.675 52.8125 -1.275 52.8125 -6.375 52.8125 C-6.3843457 51.71260742 -6.39369141 50.61271484 -6.40332031 49.47949219 C-6.44322937 45.39395834 -6.50899004 41.30917681 -6.58251953 37.22412109 C-6.61072397 35.45696689 -6.63194118 33.68968666 -6.64599609 31.92236328 C-6.66743358 29.37987778 -6.71408503 26.83890662 -6.765625 24.296875 C-6.76685364 23.50819031 -6.76808228 22.71950562 -6.76934814 21.90692139 C-6.86436391 18.33892894 -7.08058075 16.21194691 -9.22558594 13.30175781 C-12.68435886 10.90528861 -15.68663026 11.58434193 -19.6875 12.125 C-20.244375 12.351875 -20.80125 12.57875 -21.375 12.8125 C-22.64125424 16.61126271 -22.60798547 20.23671926 -22.69140625 24.19921875 C-22.71218735 25.01622757 -22.73296844 25.83323639 -22.75437927 26.67500305 C-22.81973079 29.28325034 -22.87869273 31.89159775 -22.9375 34.5 C-22.98069892 36.26889054 -23.02431365 38.03777097 -23.06835938 39.80664062 C-23.17539743 44.14182463 -23.27670544 48.47710929 -23.375 52.8125 C-28.325 52.8125 -33.275 52.8125 -38.375 52.8125 C-38.375 35.3225 -38.375 17.8325 -38.375 -0.1875 C-33.425 -0.1875 -28.475 -0.1875 -23.375 -0.1875 C-23.045 1.1325 -22.715 2.4525 -22.375 3.8125 C-20.9828125 2.8534375 -20.9828125 2.8534375 -19.5625 1.875 C-13.46902159 -2.06783897 -6.81079549 -2.39639101 0 0 Z " fill="#000000" transform="translate(357.375,66.1875)"/>
<path d="M0 0 C4.5766753 3.05111687 6.77807933 5.28071515 8.22796631 10.68704224 C8.96259899 14.50413946 8.86798501 18.3096792 8.8203125 22.18359375 C8.8174826 23.06153091 8.81465271 23.93946808 8.81173706 24.8440094 C8.80061598 27.62531645 8.77552672 30.40629164 8.75 33.1875 C8.73995975 35.08267761 8.73083573 36.97786032 8.72265625 38.87304688 C8.70070315 43.49882417 8.6662296 48.12435598 8.625 52.75 C3.675 52.75 -1.275 52.75 -6.375 52.75 C-6.38958252 51.65010742 -6.40416504 50.55021484 -6.41918945 49.41699219 C-6.4772147 45.33153977 -6.55444706 41.24663609 -6.63745117 37.16162109 C-6.67068069 35.39445917 -6.69871882 33.62719161 -6.72143555 31.85986328 C-6.75501831 29.31757649 -6.80733451 26.77625592 -6.86328125 24.234375 C-6.86967117 23.44569031 -6.8760611 22.65700562 -6.88264465 21.84442139 C-6.96942352 18.59817212 -7.16713468 16.1450019 -8.69213867 13.24707031 C-10.43411175 11.41352914 -10.43411175 11.41352914 -13.8125 11.3125 C-17.63482024 11.78190775 -18.833131 11.93500656 -21.375 14.75 C-21.80051703 17.73451857 -21.97987206 20.365867 -21.984375 23.35546875 C-22.00091125 24.19467361 -22.01744751 25.03387848 -22.03448486 25.89851379 C-22.08306023 28.57824958 -22.10435628 31.25741757 -22.125 33.9375 C-22.15315181 35.75458601 -22.18307813 37.57164545 -22.21484375 39.38867188 C-22.2888214 43.84240118 -22.33833743 48.29581351 -22.375 52.75 C-27.325 52.75 -32.275 52.75 -37.375 52.75 C-37.375 35.26 -37.375 17.77 -37.375 -0.25 C-32.755 -0.25 -28.135 -0.25 -23.375 -0.25 C-23.045 1.07 -22.715 2.39 -22.375 3.75 C-21.446875 3.110625 -20.51875 2.47125 -19.5625 1.8125 C-13.47890834 -2.12394166 -6.77318 -2.50858518 0 0 Z " fill="#A3192F" transform="translate(747.375,66.25)"/>
<path d="M0 0 C14.19 0 28.38 0 43 0 C43 11.44349796 43 11.44349796 38.3125 16.5625 C37.31049135 17.74178582 36.31059002 18.92286455 35.3125 20.10546875 C34.77882813 20.72470215 34.24515625 21.34393555 33.6953125 21.98193359 C30.59578373 25.67155122 27.72002679 29.5337041 24.8125 33.375 C22.894375 35.89125 20.97625 38.4075 19 41 C27.25 41.33 35.5 41.66 44 42 C44 45.63 44 49.26 44 53 C29.15 53 14.3 53 -1 53 C-1 44.40635418 -0.69182231 42.32163528 4.3125 36.375 C5.40870305 34.99831152 6.50372516 33.62068199 7.59765625 32.2421875 C8.15984863 31.54706055 8.72204102 30.85193359 9.30126953 30.13574219 C12.05851883 26.66916891 14.64931189 23.08454947 17.25 19.5 C18.8175 17.355 20.385 15.21 22 13 C14.74 12.67 7.48 12.34 0 12 C0 8.04 0 4.08 0 0 Z " fill="#A3182E" transform="translate(603,66)"/>
<path d="M0 0 C5.42190346 3.61818112 8.03480229 7.35261141 9.34765625 13.75390625 C9.55390625 15.25953125 9.76015625 16.76515625 9.97265625 18.31640625 C5.35265625 18.31640625 0.73265625 18.31640625 -4.02734375 18.31640625 C-5.01734375 16.33640625 -6.00734375 14.35640625 -7.02734375 12.31640625 C-10.51858392 9.9889128 -11.91956626 9.81341309 -16.02734375 10.31640625 C-18.87514994 12.54847056 -19.87732041 13.86633624 -21.02734375 17.31640625 C-21.14873866 19.77253579 -21.20276567 22.23230821 -21.21484375 24.69140625 C-21.23611328 26.65207031 -21.23611328 26.65207031 -21.2578125 28.65234375 C-20.97067684 33.21731401 -20.27734662 36.06640338 -17.02734375 39.31640625 C-13.68181707 40.52451311 -12.23576996 40.38996844 -8.83984375 39.19140625 C-5.48978515 37.34162107 -5.48978515 37.34162107 -4.02734375 32.31640625 C0.26265625 32.31640625 4.55265625 32.31640625 8.97265625 32.31640625 C10.38683589 36.55894516 8.97138845 38.86380181 7.27734375 42.87109375 C4.55892799 47.96608855 0.41320873 50.54899513 -5.02734375 52.31640625 C-13.04468312 53.08851284 -21.45584165 53.62054723 -28.02734375 48.31640625 C-33.83963383 43.05068473 -36.72277011 37.37738813 -37.30859375 29.56640625 C-37.62427966 20.29532503 -37.15760928 12.11364623 -31.40234375 4.50390625 C-23.23300448 -4.10593661 -10.39497429 -5.41444215 0 0 Z " fill="#010101" transform="translate(197.02734375,67.68359375)"/>
<path d="M0 0 C4.95 0 9.9 0 15 0 C15 24.75 15 49.5 15 75 C10.05 75 5.1 75 0 75 C0 50.25 0 25.5 0 0 Z " fill="#000000" transform="translate(268,44)"/>
<path d="M0 0 C4.95 0 9.9 0 15 0 C15 24.75 15 49.5 15 75 C10.05 75 5.1 75 0 75 C0 50.25 0 25.5 0 0 Z " fill="#000000" transform="translate(83,44)"/>
<path d="M0 0 C1 1 1 1 1.09765625 3.94140625 C1.08605469 5.13636719 1.07445312 6.33132812 1.0625 7.5625 C1.05347656 8.76003906 1.04445313 9.95757812 1.03515625 11.19140625 C1.02355469 12.11824219 1.01195312 13.04507813 1 14 C0.40832031 14.03738281 -0.18335938 14.07476562 -0.79296875 14.11328125 C-5.56797099 14.51054897 -9.1045504 14.95668 -13 18 C-14.5274639 21.0549278 -14.23991832 24.2763314 -14.31640625 27.6328125 C-14.33718735 28.38464813 -14.35796844 29.13648376 -14.37937927 29.91110229 C-14.44482705 32.31564085 -14.50373738 34.72028967 -14.5625 37.125 C-14.60568977 38.75391771 -14.64930421 40.38282422 -14.69335938 42.01171875 C-14.80130385 46.00770106 -14.90041198 50.00376564 -15 54 C-19.95 54 -24.9 54 -30 54 C-30 36.51 -30 19.02 -30 1 C-25.38 1 -20.76 1 -16 1 C-15.34 1.99 -14.68 2.98 -14 4 C-13.175 3.34 -12.35 2.68 -11.5 2 C-7.6308733 -0.6132765 -4.57275279 -0.38752142 0 0 Z " fill="#A5172D" transform="translate(571,65)"/>
<path d="M0 0 C4.95 0 9.9 0 15 0 C15 17.49 15 34.98 15 53 C10.05 53 5.1 53 0 53 C0 35.51 0 18.02 0 0 Z " fill="#A3182C" transform="translate(578,66)"/>
<path d="M0 0 C4.95 0 9.9 0 15 0 C15 17.49 15 34.98 15 53 C10.05 53 5.1 53 0 53 C0 35.51 0 18.02 0 0 Z " fill="#000000" transform="translate(294,66)"/>
<path d="M0 0 C2.65555136 2.24062146 2.93730402 3.57008472 3.4375 7 C3 10 3 10 1.5 12.375 C-2.01417791 14.65921564 -4.91899134 14.68715135 -9 14 C-11.9581538 12.55884815 -12.74147879 11.70170042 -13.875 8.625 C-14.02521993 5.47038147 -13.55730159 3.74381709 -12 1 C-8.52205835 -1.9428737 -4.12798815 -1.20070993 0 0 Z " fill="#010101" transform="translate(307,46)"/>
<path d="M0 0 C0.66 0.33 1.32 0.66 2 1 C1.67 2.32 1.34 3.64 1 5 C1.66 5.33 2.32 5.66 3 6 C4.33333333 6.66666667 5.66666667 7.33333333 7 8 C7 8.66 7 9.32 7 10 C3.97265625 10.68359375 3.97265625 10.68359375 0.9453125 11.3671875 C-1.20719964 11.90474428 -1.20719964 11.90474428 -3 14 C-3.24581843 16.86436824 -3.37369381 19.6390314 -3.4140625 22.5078125 C-3.43342865 23.34843231 -3.4527948 24.18905212 -3.4727478 25.05514526 C-3.53261658 27.74499303 -3.57895771 30.43488343 -3.625 33.125 C-3.6631731 34.94663344 -3.70222444 36.7682487 -3.7421875 38.58984375 C-3.83832398 43.05974852 -3.92232769 47.52973779 -4 52 C-8.95 52 -13.9 52 -19 52 C-19 46.06 -19 40.12 -19 34 C-18.67 34 -18.34 34 -18 34 C-18 39.61 -18 45.22 -18 51 C-10.80957686 50.28360345 -10.80957686 50.28360345 -6 46 C-5.59917391 42.98426086 -5.50180001 40.57824071 -5.66015625 37.5859375 C-5.68468369 36.77508698 -5.70921112 35.96423645 -5.73448181 35.1288147 C-5.79106194 33.41877108 -5.85991084 31.70909521 -5.94018555 30 C-6.06236647 27.37786564 -6.14670188 24.75659943 -6.22460938 22.1328125 C-6.28425246 20.47127352 -6.34602822 18.80980943 -6.41015625 17.1484375 C-6.43739273 16.36197845 -6.46462921 15.57551941 -6.49269104 14.76522827 C-6.56611903 10.41815793 -6.56611903 10.41815793 -9 7 C-7.68 6.67 -6.36 6.34 -5 6 C-5 6.66 -5 7.32 -5 8 C-4.01 8.33 -3.02 8.66 -2 9 C-1.67 8.34 -1.34 7.68 -1 7 C-1.99 6.67 -2.98 6.34 -4 6 C-4 5.01 -4 4.02 -4 3 C-2 1.3125 -2 1.3125 0 0 Z " fill="#911D2F" transform="translate(729,67)"/>
<path d="M0 0 C1.9375 1.125 1.9375 1.125 3 3 C3.49125459 6.85985753 3.56021138 9.08965651 1.5 12.4375 C-2.02126244 14.63828902 -4.95439643 14.80414661 -9 14 C-11.5 12.4375 -11.5 12.4375 -13 10 C-13.73134328 4.04477612 -13.73134328 4.04477612 -11.6875 1.125 C-7.68188622 -1.54540919 -4.53158516 -0.97105396 0 0 Z " fill="#9E192D" transform="translate(591,46)"/>
<path d="M0 0 C4.62 0 9.24 0 14 0 C14 0.33 14 0.66 14 1 C8.06 1.495 8.06 1.495 2 2 C2.33 17.84 2.66 33.68 3 50 C5.96896279 51.67082039 5.96896279 51.67082039 14 51 C14 40.11 14 29.22 14 18 C14.33 18 14.66 18 15 18 C15 29.55 15 41.1 15 53 C10.05 53 5.1 53 0 53 C0 35.51 0 18.02 0 0 Z " fill="#8C2231" transform="translate(541,66)"/>
<path d="M0 0 C1 1 1 1 1.09765625 3.94140625 C1.08605469 5.13636719 1.07445312 6.33132812 1.0625 7.5625 C1.05347656 8.76003906 1.04445313 9.95757812 1.03515625 11.19140625 C1.02355469 12.11824219 1.01195312 13.04507813 1 14 C-1.97 14 -4.94 14 -8 14 C-7.67 13.01 -7.34 12.02 -7 11 C-5.35 10.67 -3.7 10.34 -2 10 C-4.475 9.01 -4.475 9.01 -7 8 C-7.66 9.32 -8.32 10.64 -9 12 C-9.33 11.34 -9.66 10.68 -10 10 C-9.67 9.01 -9.34 8.02 -9 7 C-10.32 7 -11.64 7 -13 7 C-13 6.34 -13 5.68 -13 5 C-12.195625 4.87625 -11.39125 4.7525 -10.5625 4.625 C-9.716875 4.41875 -8.87125 4.2125 -8 4 C-7.67 3.34 -7.34 2.68 -7 2 C-7.99 1.67 -8.98 1.34 -10 1 C-6.74696956 -0.62651522 -3.60774398 -0.11453156 0 0 Z " fill="#9D1E31" transform="translate(571,65)"/>
<path d="M0 0 C0.33 0.66 0.66 1.32 1 2 C0.01 3.485 0.01 3.485 -1 5 C-1.27512419 7.32266082 -1.27512419 7.32266082 -1.1953125 9.88671875 C-1.18886719 10.82451172 -1.18242188 11.76230469 -1.17578125 12.72851562 C-1.15064453 14.19321289 -1.15064453 14.19321289 -1.125 15.6875 C-1.11597656 16.67556641 -1.10695313 17.66363281 -1.09765625 18.68164062 C-1.0740843 21.12133765 -1.04118022 23.56054697 -1 26 C-1.66 26 -2.32 26 -3 26 C-3.12375 26.598125 -3.2475 27.19625 -3.375 27.8125 C-4 30 -4 30 -6 33 C-9.0390625 33.51171875 -9.0390625 33.51171875 -12.625 33.6875 C-13.81351562 33.75324219 -15.00203125 33.81898437 -16.2265625 33.88671875 C-17.59941406 33.94279297 -17.59941406 33.94279297 -19 34 C-24.78631231 26.37446699 -24.54448231 19.18360167 -24 10 C-23.67 10 -23.34 10 -23 10 C-22.96261719 10.94101563 -22.92523438 11.88203125 -22.88671875 12.8515625 C-22.78810547 14.71941406 -22.78810547 14.71941406 -22.6875 16.625 C-22.62949219 17.85476562 -22.57148438 19.08453125 -22.51171875 20.3515625 C-21.97545799 24.1749789 -20.9977769 26.71476687 -19 30 C-15.80508241 31.59745879 -12.46790611 31.50816842 -9 31 C-6.03141843 28.79259319 -5.17134209 27.51402627 -4 24 C-3.85351918 21.73236426 -3.7790374 19.45967634 -3.75 17.1875 C-3.72421875 15.98480469 -3.6984375 14.78210938 -3.671875 13.54296875 C-4.02919981 9.68471156 -5.07505572 7.32976474 -7 4 C-7.33 3.34 -7.66 2.68 -8 2 C-7.236875 2.04125 -6.47375 2.0825 -5.6875 2.125 C-2.77281584 2.22080824 -2.77281584 2.22080824 0 0 Z " fill="#8C2131" transform="translate(521,76)"/>
<path d="M0 0 C1.22840536 2.45681071 0.88518195 3.39054563 0.4375 6.0625 C-0.29996928 12.07869678 0.34499213 17.3901799 3.625 22.5625 C7.28896292 24.78016177 9.74718648 24.47253484 14 24 C15.92005135 22.74882038 15.92005135 22.74882038 17 21 C17.66 20.34 18.32 19.68 19 19 C19.33 19.99 19.66 20.98 20 22 C19.34 22 18.68 22 18 22 C17.67 22.99 17.34 23.98 17 25 C14.30460046 26.34769977 12.06988169 26.28022191 9.0625 26.375 C7.47115234 26.44847656 7.47115234 26.44847656 5.84765625 26.5234375 C3 26 3 26 1.24609375 23.7265625 C0.83488281 22.82679687 0.42367187 21.92703125 0 21 C-0.38671875 20.3709375 -0.7734375 19.741875 -1.171875 19.09375 C-2.32508008 16.17809941 -2.26433409 13.62483237 -2.25 10.5 C-2.25515625 9.3759375 -2.2603125 8.251875 -2.265625 7.09375 C-2.01284295 4.14958257 -1.53364541 2.48304495 0 0 Z " fill="#8C2431" transform="translate(667,83)"/>
<path d="M0 0 C2.97 0 5.94 0 9 0 C9 0.66 9 1.32 9 2 C10.32 2 11.64 2 13 2 C13.33 15.86 13.66 29.72 14 44 C13.34 44 12.68 44 12 44 C11.98541748 42.86457764 11.97083496 41.72915527 11.95581055 40.55932617 C11.89786324 36.34904391 11.82063059 32.1392985 11.73754883 27.92944336 C11.7042826 26.10694081 11.67625594 24.28433481 11.65356445 22.46166992 C11.62004919 19.8424875 11.56773648 17.22425452 11.51171875 14.60546875 C11.50532883 13.78974899 11.4989389 12.97402924 11.49235535 12.1335907 C11.49798459 7.90584099 11.49798459 7.90584099 9.61433411 4.27900696 C7.43568559 2.55290417 6.0536279 2.69332053 3.3125 2.8125 C2.10013672 2.85310547 2.10013672 2.85310547 0.86328125 2.89453125 C0.24839844 2.92933594 -0.36648438 2.96414062 -1 3 C-0.67 2.01 -0.34 1.02 0 0 Z " fill="#8A1C2D" transform="translate(448,75)"/>
<path d="M0 0 C0.66 0 1.32 0 2 0 C2 0.66 2 1.32 2 2 C3.32 2.33 4.64 2.66 6 3 C4.68 3 3.36 3 2 3 C2.33 3.99 2.66 4.98 3 6 C3 6.33 3 6.66 3 7 C3.83333333 9.16666667 3.83333333 9.16666667 6 10 C4.3125 11.125 4.3125 11.125 2 12 C-0.75 11.125 -0.75 11.125 -3 10 C-2.67 9.01 -2.34 8.02 -2 7 C-3.65 7 -5.3 7 -7 7 C-7 6.34 -7 5.68 -7 5 C-4.66633067 2.98821609 -2.95214486 1.98404829 0 1 C0 0.67 0 0.34 0 0 Z " fill="#A7142E" transform="translate(515,67)"/>
<path d="M0 0 C8.25 0 16.5 0 25 0 C25 3.63 25 7.26 25 11 C24.01 11 23.02 11 22 11 C21.690625 9.88625 21.38125 8.7725 21.0625 7.625 C20.17673517 4.2054845 20.17673517 4.2054845 19 2 C12.73 1.67 6.46 1.34 0 1 C0 0.67 0 0.34 0 0 Z " fill="#951E30" transform="translate(622,108)"/>
<path d="M0 0 C3.22628119 0.9701725 6.17095973 2.15877189 9 4 C9.33 4.66 9.66 5.32 10 6 C9.34 6 8.68 6 8 6 C7.67 6.66 7.34 7.32 7 8 C7 7.34 7 6.68 7 6 C6.34 6 5.68 6 5 6 C4.67 6.99 4.34 7.98 4 9 C2.5393715 6.35261084 2 5.10551666 2 2 C-3.61 2 -9.22 2 -15 2 C-10.30399989 -1.13066674 -5.4980238 -0.57087021 0 0 Z " fill="#902030" transform="translate(683,65)"/>
<path d="M0 0 C1.32 0 2.64 0 4 0 C3.67 1.65 3.34 3.3 3 5 C2.34 5 1.68 5 1 5 C1 5.66 1 6.32 1 7 C0.34 7 -0.32 7 -1 7 C-0.65772428 9.97065509 -0.65772428 9.97065509 0 13 C0.66 13.33 1.32 13.66 2 14 C1.01 14.33 0.02 14.66 -1 15 C-1 14.01 -1 13.02 -1 12 C-1.598125 12.66 -2.19625 13.32 -2.8125 14 C-5 16 -5 16 -8 16 C-6.45158425 12.65291949 -4.50894136 9.75332488 -2.375 6.75 C-1.74335937 5.85796875 -1.11171875 4.9659375 -0.4609375 4.046875 C0.26222656 3.03367187 0.26222656 3.03367187 1 2 C0.67 1.34 0.34 0.68 0 0 Z " fill="#951C2E" transform="translate(624,77)"/>
<path d="M0 0 C0.99 0.33 1.98 0.66 3 1 C-3.16114588 6.44473356 -7.41521428 8.33392768 -15.8125 8.125 C-16.85180664 8.11146484 -16.85180664 8.11146484 -17.91210938 8.09765625 C-19.60822395 8.07426157 -21.30415871 8.03839641 -23 8 C-23 7.67 -23 7.34 -23 7 C-18.38 7 -13.76 7 -9 7 C-9 6.01 -9 5.02 -9 4 C-8.43410156 3.87882812 -7.86820313 3.75765625 -7.28515625 3.6328125 C-6.55167969 3.46523437 -5.81820312 3.29765625 -5.0625 3.125 C-4.33160156 2.96257812 -3.60070312 2.80015625 -2.84765625 2.6328125 C-0.79299706 2.17038477 -0.79299706 2.17038477 0 0 Z " fill="#8F2235" transform="translate(524,112)"/>
<path d="M0 0 C4.19370187 1.55322291 7.20911636 3.48555394 10 7 C10.75 9.75 10.75 9.75 11 12 C8.24282298 10.62141149 7.53678254 8.62533685 6 6 C3.00371461 3.00371461 -0.58493471 3.2750714 -4.625 2.875 C-5.82769531 2.74544922 -5.82769531 2.74544922 -7.0546875 2.61328125 C-9.03563635 2.40103673 -11.01772718 2.19950069 -13 2 C-8.73567018 -0.84288655 -5.00460629 -0.50748738 0 0 Z " fill="#8D2735" transform="translate(744,65)"/>
<path d="M0 0 C0.66 0.33 1.32 0.66 2 1 C1.67 1.66 1.34 2.32 1 3 C1.66 3.33 2.32 3.66 3 4 C2.67 5.32 2.34 6.64 2 8 C0.0625 7.6875 0.0625 7.6875 -2 7 C-2.33 6.01 -2.66 5.02 -3 4 C-4.62831762 5.80961577 -4.62831762 5.80961577 -6 8 C-5.67 8.99 -5.34 9.98 -5 11 C-6.65 11 -8.3 11 -10 11 C-8.56314642 5.97101246 -6.05763331 4.04322498 -2 1 C-1.34 0.67 -0.68 0.34 0 0 Z " fill="#9E1D2D" transform="translate(665,67)"/>
<path d="M0 0 C2.3125 0.0625 2.3125 0.0625 5 1 C6.75 4.4375 6.75 4.4375 8 8 C8.33 8.66 8.66 9.32 9 10 C4.71095765 8.4114658 2.67654474 5.56872632 0 2 C0 1.34 0 0.68 0 0 Z " fill="#912132" transform="translate(655,107)"/>
<path d="M0 0 C0.268125 0.598125 0.53625 1.19625 0.8125 1.8125 C1.88022403 4.04267613 1.88022403 4.04267613 3.625 5.5625 C5 7 5 7 5 10 C7.31 10 9.62 10 12 10 C12 10.33 12 10.66 12 11 C4.77108434 11.48192771 4.77108434 11.48192771 1.5 9.4375 C-0.50478781 6.17971981 -0.28862859 3.75217167 0 0 Z " fill="#902034" transform="translate(578,49)"/>
<path d="M0 0 C4.83256305 0.41421969 6.82679218 2.46413986 10 6 C7.525 5.01 7.525 5.01 5 4 C4.67 4.99 4.34 5.98 4 7 C3.34 6.67 2.68 6.34 2 6 C2 5.34 2 4.68 2 4 C1.34 3.67 0.68 3.34 0 3 C0 2.01 0 1.02 0 0 Z " fill="#931E2F" transform="translate(517,67)"/>
<path d="M0 0 C-1.65167557 3.5786304 -3.78286492 6.74820188 -6 10 C-6.33 9.34 -6.66 8.68 -7 8 C-7.66 7.67 -8.32 7.34 -9 7 C-7.68 6.34 -6.36 5.68 -5 5 C-5 3.68 -5 2.36 -5 1 C-2 0 -2 0 0 0 Z " fill="#941D31" transform="translate(633,91)"/>
<path d="M0 0 C0.66 0.33 1.32 0.66 2 1 C-0.54664585 5.81033104 -2.99027798 9.32442148 -7 13 C-7.66 12.67 -8.32 12.34 -9 12 C-6.03 8.04 -3.06 4.08 0 0 Z " fill="#821729" transform="translate(612,96)"/>
<path d="M0 0 C0.86625 -0.00515625 1.7325 -0.0103125 2.625 -0.015625 C5 0.25 5 0.25 8 2.25 C2.39436958 3.07622671 -2.42289352 3.31795656 -8 2.25 C-4.76085771 0.09057181 -3.75140267 -0.02232978 0 0 Z " fill="#8C2332" transform="translate(458,64.75)"/>
<path d="M0 0 C1.65 0 3.3 0 5 0 C5.63019694 9.17286652 5.63019694 9.17286652 3 12.625 C2.34 13.07875 1.68 13.5325 1 14 C1 12.35 1 10.7 1 9 C1.99 8.67 2.98 8.34 4 8 C4 5.69 4 3.38 4 1 C2.68 0.67 1.36 0.34 0 0 Z " fill="#8D2234" transform="translate(641,66)"/>
<path d="M0 0 C0.66 0 1.32 0 2 0 C3 1.33333333 4 2.66666667 5 4 C5.66 4 6.32 4 7 4 C7.66 5.98 8.32 7.96 9 10 C4.50486731 8.50162244 2.37078067 4.87680938 0 1 C0 0.67 0 0.34 0 0 Z " fill="#8B2031" transform="translate(485,106)"/>
<path d="M0 0 C3.63 0 7.26 0 11 0 C11 0.33 11 0.66 11 1 C10.30132813 1.09796875 9.60265625 1.1959375 8.8828125 1.296875 C7.97273437 1.44640625 7.06265625 1.5959375 6.125 1.75 C5.22007812 1.88921875 4.31515625 2.0284375 3.3828125 2.171875 C0.83785757 2.77983843 0.83785757 2.77983843 -0.3203125 5.078125 C-0.54460938 5.71234375 -0.76890625 6.3465625 -1 7 C-0.67 4.69 -0.34 2.38 0 0 Z " fill="#8F2631" transform="translate(669,76)"/>
<path d="M0 0 C1.32 0.33 2.64 0.66 4 1 C2.71283353 2.00578589 1.42011342 3.00446798 0.125 4 C-0.95394531 4.8353125 -0.95394531 4.8353125 -2.0546875 5.6875 C-4 7 -4 7 -6 7 C-6 6.34 -6 5.68 -6 5 C-5.01 5 -4.02 5 -3 5 C-3 4.34 -3 3.68 -3 3 C-2.01 3 -1.02 3 0 3 C0 2.01 0 1.02 0 0 Z " fill="#8B2232" transform="translate(692,112)"/>
<path d="M0 0 C0.66 0.33 1.32 0.66 2 1 C1.319375 1.763125 0.63875 2.52625 -0.0625 3.3125 C-0.701875 4.199375 -1.34125 5.08625 -2 6 C-1.67 6.99 -1.34 7.98 -1 9 C-2.65 9 -4.3 9 -6 9 C-4.68775452 5.06326356 -3.08089673 2.77280706 0 0 Z " fill="#8A2333" transform="translate(661,69)"/>
<path d="M0 0 C0.33 0 0.66 0 1 0 C1 1.65 1 3.3 1 5 C1.66 5 2.32 5 3 5 C3 5.66 3 6.32 3 7 C3.99 7.33 4.98 7.66 6 8 C4.02 8.33 2.04 8.66 0 9 C0 6.03 0 3.06 0 0 Z " fill="#931F32" transform="translate(602,110)"/>
<path d="M0 0 C2.31 0.33 4.62 0.66 7 1 C7 1.66 7 2.32 7 3 C4.69 3.33 2.38 3.66 0 4 C0 2.68 0 1.36 0 0 Z " fill="#942433" transform="translate(729,74)"/>
<path d="M0 0 C1.65 0 3.3 0 5 0 C4.67 0.99 4.34 1.98 4 3 C2.02 3.33 0.04 3.66 -2 4 C-1.34 2.68 -0.68 1.36 0 0 Z " fill="#991E34" transform="translate(559,67)"/>
</svg>
